<svg width="21" height="15" viewBox="0 0 21 15" fill="none" xmlns="http://www.w3.org/2000/svg">
<path d="M0 1.28571C0 0.575634 0.575634 0 1.28571 0H19.7143C20.4244 0 21 0.575634 21 1.28571V1.28571C21 1.99579 20.4244 2.57143 19.7143 2.57143H1.28571C0.575635 2.57143 0 1.99579 0 1.28571V1.28571Z" fill="#FFFCFC"/>
<path d="M0 1.28571C0 0.575634 0.575634 0 1.28571 0H19.7143C20.4244 0 21 0.575634 21 1.28571V1.28571C21 1.99579 20.4244 2.57143 19.7143 2.57143H1.28571C0.575635 2.57143 0 1.99579 0 1.28571V1.28571Z" fill="#FFFCFC"/>
<path d="M0 1.28571C0 0.575634 0.575634 0 1.28571 0H19.7143C20.4244 0 21 0.575634 21 1.28571V1.28571C21 1.99579 20.4244 2.57143 19.7143 2.57143H1.28571C0.575635 2.57143 0 1.99579 0 1.28571V1.28571Z" fill="#FFFCFC"/>
<path d="M0 13.7143C0 13.0042 0.575634 12.4286 1.28571 12.4286H19.7143C20.4244 12.4286 21 13.0042 21 13.7143V13.7143C21 14.4244 20.4244 15 19.7143 15H1.28571C0.575635 15 0 14.4244 0 13.7143V13.7143Z" fill="#FFFCFC"/>
<path d="M0 1.28571C0 0.575634 0.575634 0 1.28571 0H19.7143C20.4244 0 21 0.575634 21 1.28571V1.28571C21 1.99579 20.4244 2.57143 19.7143 2.57143H1.28571C0.575635 2.57143 0 1.99579 0 1.28571V1.28571Z" fill="#FFFCFC"/>
<path d="M0 7.50007C0 6.78999 0.575634 6.21436 1.28571 6.21436H19.7143C20.4244 6.21436 21 6.78999 21 7.50007V7.50007C21 8.21015 20.4244 8.78578 19.7143 8.78578H1.28571C0.575635 8.78578 0 8.21015 0 7.50007V7.50007Z" fill="#FFFCFC"/>
</svg>
